<?xml version="1.0" standalone="no"?>
<!DOCTYPE svg PUBLIC "-//W3C//DTD SVG 20010904//EN"
 "http://www.w3.org/TR/2001/REC-SVG-20010904/DTD/svg10.dtd">
<svg version="1.0" xmlns="http://www.w3.org/2000/svg"
 width="926.000000pt" height="926.000000pt" viewBox="0 0 926.000000 926.000000"
 preserveAspectRatio="xMidYMid meet">
<metadata>
Created by potrace 1.14, written by Peter Selinger 2001-2017
</metadata>
<g transform="translate(0.000000,926.000000) scale(0.100000,-0.100000)"
fill="#000000" stroke="none">
<path d="M4305 8600 c-665 -39 -1391 -263 -1940 -600 -385 -236 -754 -556
-1030 -895 -480 -589 -748 -1221 -841 -1988 -22 -179 -22 -588 0 -802 35 -354
122 -706 258 -1054 136 -346 382 -763 615 -1041 35 -41 61 -81 58 -87 -2 -7
-1 -12 3 -12 16 3 35 -1 30 -6 -3 -3 14 -27 38 -52 23 -26 40 -52 37 -57 -3
-6 -3 -8 2 -4 11 10 35 -10 31 -25 -1 -7 -1 -8 2 -4 2 4 10 3 18 -4 8 -6 11
-15 8 -20 -3 -5 2 -6 10 -3 19 7 22 -12 4 -20 -7 -3 -3 -3 9 -1 14 4 26 -1 35
-13 7 -10 63 -63 123 -117 61 -54 109 -102 107 -106 -1 -5 1 -8 5 -8 23 4 33
-3 33 -23 0 -32 38 -105 66 -127 13 -10 20 -21 17 -25 -3 -3 -2 -6 3 -6 6 0
19 -7 30 -15 18 -15 18 -15 0 -8 -14 5 -17 3 -11 -6 4 -8 20 -11 36 -9 16 3
29 1 29 -4 0 -4 7 -8 15 -8 8 0 15 5 15 10 0 6 9 1 20 -10 12 -12 25 -18 31
-14 6 3 3 11 -8 20 -25 19 -7 17 23 -2 29 -19 43 -12 23 12 -11 14 44 -18 76
-44 6 -4 21 -16 35 -26 15 -11 18 -16 7 -12 -11 3 -16 2 -12 -4 3 -6 16 -10
28 -10 30 0 127 -57 127 -74 0 -17 24 -28 44 -20 8 3 17 1 21 -5 3 -6 0 -9 -7
-6 -9 4 -14 -3 -15 -17 0 -13 1 -17 4 -10 3 6 11 12 18 12 7 0 16 -6 18 -12 4
-9 8 -10 14 -2 6 7 15 7 30 -1 25 -13 21 -27 -5 -18 -14 4 -15 3 -2 -5 8 -6
20 -7 29 -2 17 9 63 -9 55 -22 -3 -5 0 -8 7 -7 19 4 119 -41 119 -53 0 -5 4
-6 10 -3 5 3 19 1 31 -5 20 -11 20 -12 2 -25 -16 -13 -15 -13 14 -6 25 7 31 6
26 -4 -2 -8 -12 -16 -21 -18 -16 -4 -16 -5 0 -6 9 0 23 5 31 13 13 13 23 11
85 -14 38 -15 95 -36 126 -46 48 -15 53 -19 38 -30 -9 -7 -21 -10 -27 -7 -5 3
-4 0 3 -8 10 -11 14 -11 21 -1 4 7 16 14 27 14 26 2 155 -42 150 -51 -3 -4 8
-5 24 -3 23 3 28 0 27 -15 -2 -13 4 -17 21 -16 12 2 22 -2 22 -7 0 -6 5 -10
11 -10 6 0 8 7 5 16 -5 12 -2 15 11 9 56 -22 416 -101 613 -134 287 -48 745
-64 1040 -36 102 9 216 19 253 21 37 2 73 6 80 11 7 4 6 0 -2 -11 -19 -22 -3
-39 34 -34 l27 3 -22 27 -21 28 28 0 c16 0 69 9 118 19 49 11 92 18 94 15 8
-7 -21 -24 -31 -18 -4 3 -13 2 -20 -2 -12 -8 13 -22 42 -23 13 -1 13 0 0 9
-13 8 -12 10 3 10 9 0 17 7 17 15 0 8 5 15 10 15 6 0 10 -5 10 -11 0 -5 5 -7
10 -4 6 4 8 11 5 16 -4 5 1 9 10 9 10 0 13 -5 9 -12 -5 -7 -3 -8 5 -4 8 5 14
0 18 -13 3 -12 11 -21 18 -21 8 0 11 8 9 18 -3 11 4 21 22 29 33 15 42 10 21
-11 -8 -8 -17 -12 -21 -9 -8 9 -6 -8 4 -32 8 -18 9 -18 9 -2 1 27 46 71 65 64
9 -4 16 -3 16 2 0 5 20 15 45 22 53 16 62 32 9 17 -20 -5 -38 -7 -40 -5 -3 2
22 11 56 20 33 8 60 11 60 7 0 -5 -6 -11 -12 -13 -10 -4 -10 -6 0 -6 6 -1 12
-10 12 -21 0 -11 4 -20 10 -20 5 0 7 13 4 30 -4 20 -2 30 5 30 7 0 10 4 7 8
-3 5 1 9 8 9 8 0 12 -7 8 -15 -3 -9 -1 -13 5 -9 15 10 34 -38 20 -52 -8 -8 -7
-11 6 -11 21 0 21 16 2 50 -16 28 -21 66 -6 41 5 -7 14 -10 20 -7 6 4 9 12 6
17 -4 5 -1 9 4 9 6 0 11 -5 11 -10 0 -6 12 -8 28 -5 25 5 25 5 5 -4 -26 -12
-32 -24 -7 -14 9 3 20 0 25 -8 11 -17 12 -39 1 -24 -12 17 -35 17 -29 0 4 -8
2 -15 -3 -15 -6 0 -10 -5 -10 -10 0 -6 13 -4 30 5 17 9 30 19 30 23 0 10 54 7
72 -4 10 -6 10 -4 -1 9 -8 10 -28 17 -47 17 -27 0 -34 4 -34 19 0 10 6 21 13
24 8 3 14 -1 14 -9 0 -7 -4 -11 -9 -8 -4 3 -8 1 -8 -4 0 -5 18 -9 40 -8 22 0
40 2 40 5 0 2 -10 12 -22 22 -11 11 -16 19 -10 19 7 0 21 -9 33 -21 17 -17 18
-23 8 -35 -11 -13 -9 -14 16 -8 24 6 27 4 22 -9 -5 -14 -3 -15 13 -4 23 13 27
39 6 31 -8 -3 -17 0 -22 7 -5 9 -2 10 9 6 20 -7 22 4 5 21 -9 9 -9 12 0 12 7
0 12 -6 13 -12 1 -7 5 -2 9 12 6 18 8 20 9 7 1 -18 23 -47 36 -47 4 0 4 7 1
16 -3 8 -2 12 4 9 6 -3 13 0 16 9 3 8 12 12 20 9 9 -3 13 -12 10 -19 -3 -8 1
-14 10 -14 8 0 14 6 13 13 -4 30 2 58 11 52 5 -3 7 -12 3 -20 -3 -8 0 -15 7
-15 10 0 10 -3 0 -15 -10 -12 -9 -15 5 -15 13 0 15 6 10 32 l-7 31 27 -21 c15
-12 33 -22 39 -22 6 0 5 4 -3 9 -10 7 -10 10 -1 16 13 8 30 -11 30 -32 0 -7 5
-13 11 -13 5 0 8 4 4 9 -3 5 -1 12 4 16 20 12 39 63 28 74 -18 18 -26 12 -23
-16 4 -31 -2 -53 -14 -53 -15 0 -5 83 10 88 21 7 40 28 33 36 -3 3 2 16 13 27
19 22 19 22 -6 14 -23 -7 -23 -7 -7 9 20 20 40 12 32 -13 -3 -10 4 -26 15 -39
23 -24 27 -77 6 -85 -8 -3 -17 2 -21 11 -5 14 -8 12 -19 -8 -16 -31 -12 -37
10 -19 10 8 19 13 21 12 13 -10 33 0 33 16 0 11 5 23 11 27 7 4 7 9 1 13 -14
9 -27 55 -13 47 6 -4 11 -13 11 -21 0 -8 7 -11 20 -8 11 3 20 0 20 -6 0 -6 -4
-11 -10 -11 -17 0 -11 -20 8 -27 9 -4 20 -11 24 -17 5 -8 8 -7 8 1 0 7 -7 16
-16 21 -19 10 -10 34 9 26 9 -3 12 7 11 33 -3 48 12 79 30 63 8 -5 21 -8 30
-4 9 3 16 2 16 -3 0 -5 7 -10 15 -10 8 0 15 6 15 14 0 7 5 13 10 13 6 0 10 5
10 10 0 6 -7 10 -15 10 -8 0 -15 -7 -15 -15 0 -8 -4 -15 -10 -15 -5 0 -7 17
-4 37 5 41 14 57 14 26 0 -19 11 -23 40 -13 3 1 22 1 43 0 22 -1 37 3 37 10 0
6 -6 10 -12 9 -28 -3 -72 3 -58 8 8 3 18 11 22 17 5 8 8 7 8 -1 0 -7 7 -13 16
-13 8 0 13 4 10 9 -3 5 1 12 10 15 9 3 12 11 8 18 -5 10 -4 10 5 2 7 -6 13
-30 14 -52 1 -23 5 -42 10 -42 4 0 7 15 5 32 -2 20 2 33 9 33 6 0 15 3 19 8 4
4 0 7 -9 7 -10 0 -17 7 -17 16 0 8 5 12 10 9 11 -7 40 18 40 34 0 6 6 11 13
11 7 0 8 3 2 8 -13 10 -18 35 -5 27 20 -12 52 6 47 26 -3 10 -1 19 4 19 5 0 9
-7 9 -15 0 -23 -22 -65 -31 -59 -5 3 -9 -2 -9 -10 0 -9 -4 -16 -10 -16 -5 0
-10 -15 -9 -32 l1 -33 9 33 c5 17 16 32 23 32 8 0 19 14 25 31 6 17 15 28 21
24 6 -3 10 3 10 15 0 13 -4 19 -11 14 -7 -4 -10 -1 -7 7 3 8 11 14 18 14 7 0
15 6 18 14 3 9 0 11 -9 5 -12 -7 -12 -5 0 9 7 9 18 14 24 10 6 -4 7 -1 3 6 -5
7 -14 10 -22 7 -8 -3 -11 0 -7 10 6 16 23 19 23 4 0 -5 7 -10 15 -10 9 0 12
-6 9 -15 -4 -8 -1 -15 6 -15 6 0 9 -4 5 -9 -3 -5 0 -13 6 -17 8 -4 9 3 4 25
-4 20 -3 31 4 31 6 0 11 -7 11 -16 0 -8 5 -12 10 -9 8 5 7 11 -1 21 -6 8 -7
14 -2 14 5 0 9 8 10 18 3 42 20 72 42 72 5 0 12 8 14 18 3 11 5 8 6 -9 1 -20
-4 -26 -16 -25 -10 0 -18 -7 -20 -19 -3 -19 -3 -19 5 -1 11 24 25 6 16 -21 -5
-17 -4 -16 10 1 9 11 16 25 16 32 0 7 5 16 10 19 7 4 9 -3 5 -22 -5 -26 -5
-26 5 -5 8 19 6 30 -9 51 -19 27 -19 27 0 39 20 13 26 32 9 32 -6 0 -9 -3 -8
-7 2 -5 0 -9 -4 -10 -5 -2 -7 0 -6 5 4 14 326 331 331 326 3 -3 -10 -20 -29
-37 -26 -25 -33 -37 -28 -54 6 -22 24 -32 24 -14 0 4 11 20 26 36 14 15 22 30
19 33 -3 4 -10 0 -14 -7 -5 -8 -11 -9 -15 -3 -3 5 5 17 19 26 14 9 25 24 24
34 0 15 -1 14 -8 -2 -5 -14 -10 -16 -15 -7 -5 7 -2 17 6 24 31 25 257 311 302
381 14 23 20 26 28 15 8 -11 8 -10 4 4 -4 12 8 39 33 75 105 155 261 437 316
572 290 710 379 1457 260 2188 -66 407 -154 685 -324 1037 -136 280 -269 492
-474 755 -115 146 -135 168 -347 380 -264 264 -469 423 -805 623 -78 46 -307
159 -457 226 -285 126 -692 244 -1018 295 -254 41 -708 62 -975 46z m650 -241
c157 -13 454 -63 630 -106 653 -160 1293 -503 1738 -932 519 -501 807 -942
1015 -1556 55 -162 127 -446 147 -578 35 -237 46 -635 25 -892 -39 -468 -167
-940 -362 -1328 l-39 -78 -39 35 c-82 74 -175 101 -294 84 -39 -5 -89 -18
-111 -27 -46 -21 -137 -89 -212 -159 l-53 -49 0 637 0 638 68 7 c465 49 754
511 607 972 -59 185 -204 343 -399 434 -67 31 -177 59 -238 59 l-38 0 0 553
c-1 303 -5 584 -9 623 -16 138 -106 279 -233 364 -93 62 -164 79 -354 84 -159
4 -160 4 -209 35 -48 31 -50 31 -184 31 -75 0 -141 4 -148 8 -6 4 -21 33 -33
65 -73 195 -267 363 -475 413 -98 23 -249 21 -350 -5 -214 -56 -394 -211 -475
-409 l-26 -64 -294 -2 c-306 -1 -331 -5 -375 -46 -18 -17 -44 -19 -265 -24
-269 -6 -322 -15 -422 -68 -32 -17 -79 -53 -105 -81 -27 -30 -49 -45 -51 -38
-7 20 -95 123 -137 160 -60 52 -167 118 -246 152 -238 101 -554 83 -782 -44
-164 -92 -295 -230 -381 -400 -71 -142 -88 -222 -89 -407 0 -141 2 -163 27
-245 67 -221 212 -408 406 -523 348 -208 783 -166 1068 101 l52 50 0 -382 0
-381 -305 0 c-338 0 -348 -2 -385 -63 -11 -18 -20 -49 -20 -69 0 -21 -2 -38
-5 -38 -3 0 -31 21 -63 47 -117 95 -269 143 -455 143 -198 0 -382 -71 -522
-202 -149 -139 -224 -288 -244 -481 -24 -246 49 -448 228 -628 139 -139 286
-210 483 -232 85 -10 108 -8 203 10 117 23 237 75 317 136 l48 37 0 -628 c0
-345 3 -637 6 -649 l6 -23 -274 0 c-264 0 -275 -1 -318 -22 -71 -37 -80 -65
-80 -250 0 -87 -4 -158 -9 -158 -10 0 -270 272 -343 360 -468 561 -779 1290
-853 2002 -18 173 -20 572 -4 734 65 665 298 1246 722 1808 377 498 918 918
1507 1169 468 200 930 306 1435 331 104 5 433 -3 570 -15z m729 -864 c209 -55
346 -208 371 -415 6 -45 5 -53 -6 -42 -7 6 -12 29 -11 50 1 26 -1 31 -7 18
-10 -25 -24 -5 -15 21 6 16 5 16 -14 -2 -12 -12 -22 -38 -25 -65 -3 -25 -13
-67 -23 -95 -55 -160 -101 -206 -294 -294 -53 -24 -207 -7 -282 30 -35 18 -44
12 -25 -17 7 -12 -19 -29 -37 -25 -5 1 -4 -5 4 -13 14 -17 25 -22 15 -7 -3 5
-1 13 5 16 6 4 10 3 9 -2 -4 -22 4 -33 36 -53 20 -12 42 -19 51 -16 8 3 13 2
9 -3 -3 -5 1 -12 7 -15 7 -3 2 -3 -12 0 -133 32 -276 177 -322 329 -71 230 51
493 264 571 126 47 205 54 302 29z m-2839 -395 c107 -33 191 -85 279 -172 65
-65 78 -82 74 -103 -4 -18 -2 -23 6 -15 9 6 17 1 29 -19 16 -27 16 -29 -2 -45
-15 -13 -18 -14 -18 -1 0 8 4 12 8 10 4 -3 6 3 4 12 -2 10 -4 22 -4 26 -1 5
-5 6 -10 3 -5 -3 -7 -62 -5 -131 4 -96 1 -136 -11 -171 -8 -25 -13 -49 -10
-54 3 -5 -4 -14 -15 -20 -11 -6 -20 -16 -20 -23 0 -8 4 -7 10 3 5 8 12 12 15
8 9 -9 -11 -45 -30 -52 -13 -4 -13 -9 -4 -24 10 -16 8 -23 -9 -43 -12 -12 -22
-29 -22 -37 0 -22 -34 -59 -49 -54 -10 3 -11 -2 -6 -18 5 -15 4 -20 -4 -16 -6
4 -11 1 -12 -6 0 -10 -2 -10 -6 0 -2 6 -9 12 -14 12 -14 0 -11 -28 4 -33 6 -3
-4 -6 -23 -7 -32 -2 -33 -3 -10 -9 25 -7 25 -7 4 -19 -12 -6 -24 -8 -28 -4 -4
3 -4 -2 0 -13 7 -20 7 -20 -14 -1 -17 14 -22 16 -22 5 0 -8 -12 -19 -26 -26
-21 -10 -25 -10 -20 2 3 8 1 17 -4 20 -6 4 -10 -5 -10 -19 0 -30 16 -33 48
-10 13 9 26 14 28 11 11 -10 -104 -77 -133 -77 -7 0 -13 -4 -13 -8 0 -10 -84
-35 -126 -37 -17 -1 -36 -5 -41 -8 -6 -4 -57 -5 -114 -4 -94 3 -153 14 -201
38 -10 5 -24 9 -32 9 -7 0 -27 7 -42 15 -37 19 -54 19 -54 -1 0 -8 4 -13 8
-10 5 3 9 -1 9 -9 0 -20 -7 -19 -23 3 -12 16 -13 16 -14 0 0 -9 8 -21 18 -27
9 -5 17 -13 17 -18 0 -4 4 -7 8 -5 5 1 6 -2 2 -8 -4 -6 -12 -5 -25 2 -10 7
-17 15 -15 18 2 4 -5 13 -16 21 -31 21 -83 96 -123 175 -94 188 -89 412 15
622 89 182 294 328 509 362 81 13 205 4 285 -20z m2019 -16 c12 -5 16 -20 16
-63 1 -195 112 -413 281 -550 64 -52 191 -112 278 -132 86 -20 294 -10 366 17
11 4 10 -5 -4 -43 -61 -160 -47 -372 34 -511 35 -61 110 -150 170 -200 138
-119 346 -162 540 -112 211 54 385 230 440 445 19 76 19 241 0 324 -49 208
-232 390 -446 446 -50 13 -88 16 -174 11 -60 -3 -123 -8 -138 -12 l-29 -7 16
30 c27 54 56 176 63 266 l6 87 111 0 c75 -1 117 -5 128 -14 25 -18 38 -60 38
-117 l0 -49 200 1 c197 2 200 2 254 -25 31 -15 71 -45 90 -68 67 -78 66 -67
66 -722 l0 -591 -76 -29 c-131 -51 -260 -155 -340 -277 -80 -123 -114 -245
-114 -413 0 -126 16 -193 77 -316 40 -81 60 -109 142 -190 78 -78 113 -105
188 -143 50 -26 98 -47 107 -47 14 0 16 -70 16 -742 l0 -743 -202 -203 -201
-204 -226 76 c-124 41 -273 89 -331 106 l-105 31 -387 -1 -388 -1 -2 213 c-1
117 -3 191 -5 163 -3 -27 -10 -53 -16 -57 -9 -6 -9 -8 1 -8 7 0 12 -12 11 -27
-1 -17 -3 -21 -6 -10 -2 9 -9 17 -14 17 -5 0 -9 14 -9 31 0 28 -1 29 -16 14
-13 -12 -14 -18 -4 -31 17 -19 5 -31 -15 -14 -11 9 -12 17 -5 30 6 10 10 27 9
37 0 13 -3 12 -10 -7 -9 -23 -11 -23 -20 -7 -6 9 -14 15 -19 12 -6 -4 -5 -14
2 -25 16 -26 2 -37 -20 -17 -27 24 -32 21 -25 -13 6 -33 -11 -42 -20 -10 -3
13 -11 18 -21 14 -11 -4 -13 -11 -5 -31 12 -32 11 -43 -1 -43 -6 0 -10 6 -9
13 3 26 -2 37 -16 37 -8 0 -15 -4 -15 -8 0 -5 -12 -14 -27 -21 -23 -10 -29
-10 -39 3 -6 9 -14 13 -17 9 -4 -3 -7 5 -8 18 -1 21 -2 20 -12 -9 -11 -35 -2
-56 13 -32 7 10 10 11 10 3 0 -7 1 -16 3 -20 1 -3 -8 -7 -20 -8 -17 -1 -23 4
-23 18 0 17 -5 18 -35 13 -25 -5 -35 -3 -35 6 0 8 -5 6 -11 -4 -5 -10 -19 -18
-29 -18 -24 0 -25 9 -4 24 13 10 13 12 -5 12 -12 0 -21 -6 -21 -12 0 -7 -7
-15 -16 -18 -12 -5 -14 -1 -8 16 6 20 5 21 -9 10 -9 -8 -21 -11 -27 -7 -5 3
-10 0 -10 -9 0 -8 6 -17 13 -20 10 -5 10 -7 0 -12 -9 -4 -13 -36 -13 -110 l0
-104 -105 0 -105 0 0 103 0 102 -156 -3 c-155 -3 -207 -11 -82 -13 59 -1 65
-3 61 -20 -3 -11 0 -19 7 -19 10 0 10 -3 0 -15 -10 -13 -9 -15 9 -15 11 0 21
-5 21 -11 0 -7 -10 -9 -26 -5 -22 6 -25 4 -20 -14 3 -11 9 -29 12 -40 3 -11
10 -20 15 -20 6 0 8 4 5 8 -2 4 -1 14 5 22 6 12 9 12 9 2 0 -26 28 -43 60 -37
17 3 38 1 47 -4 10 -5 -24 -8 -95 -8 -62 0 -115 -3 -119 -6 -3 -4 -177 -7
-385 -7 l-378 0 0 2153 c0 2418 -7 2213 75 2285 24 21 61 44 83 50 26 8 133
12 316 12 l276 0 0 50 c0 66 22 118 52 125 54 12 504 20 532 9z m1158 -48 c4
3 9 0 14 -7 4 -8 3 -10 -5 -5 -7 4 -15 -2 -20 -16 -6 -13 -10 -16 -11 -8 0 8
-3 26 -6 40 -5 23 -4 24 9 8 8 -10 16 -15 19 -12z m33 -78 c-9 -79 -24 -122
-19 -53 6 64 15 115 21 115 3 0 2 -28 -2 -62z m-2793 -252 c-3 -5 -9 -1 -12
10 -4 10 -5 23 -2 28 3 5 9 1 12 -10 4 -10 5 -23 2 -28z m-32 4 c0 -5 -5 -10
-11 -10 -5 0 -7 5 -4 10 3 6 8 10 11 10 2 0 4 -4 4 -10z m2547 -126 c-3 -3
-12 -4 -19 -1 -8 3 -5 6 6 6 11 1 17 -2 13 -5z m-122 -34 c-16 -4 -55 -7 -85
-7 l-55 0 60 7 c33 4 71 7 85 7 22 1 21 0 -5 -7z m861 -57 c99 -33 190 -116
239 -218 25 -51 29 -74 32 -160 3 -105 -19 -203 -44 -198 -7 2 -10 -4 -7 -12
8 -20 -60 -108 -107 -141 -21 -14 -46 -24 -56 -21 -15 4 -14 5 4 6 16 1 21 6
17 16 -5 11 -2 13 12 8 12 -4 15 -3 10 5 -5 8 0 12 12 12 21 0 59 36 49 47 -4
3 -17 -3 -30 -15 -24 -23 -47 -29 -47 -13 0 5 7 14 15 21 8 7 15 9 15 4 0 -4
5 -3 11 3 6 6 8 17 4 23 -5 8 -10 9 -18 1 -17 -17 -27 -13 -20 6 5 14 1 13
-24 -5 -17 -12 -36 -22 -43 -22 -7 0 -9 -8 -5 -20 5 -15 2 -20 -14 -20 -11 0
-23 -5 -27 -11 -4 -8 -9 -7 -15 2 -7 12 -11 12 -17 1 -16 -24 -63 -43 -78 -32
-9 8 -13 7 -16 -6 -3 -16 -4 -16 -22 1 -16 16 -20 17 -30 4 -6 -8 -27 -15 -48
-14 -20 0 -34 -3 -31 -7 2 -5 11 -8 19 -8 9 0 12 -5 8 -11 -4 -8 0 -9 15 -4
11 3 21 2 21 -3 0 -5 15 -8 33 -6 21 3 27 1 18 -5 -11 -7 -10 -10 5 -14 10 -3
-3 -3 -31 0 -140 16 -246 94 -313 232 -110 227 6 502 243 577 59 19 202 17
261 -3z m-4275 -600 c13 -16 12 -17 -3 -4 -10 7 -18 15 -18 17 0 8 8 3 21 -13z
m4341 -65 c-6 -6 -15 -8 -19 -4 -4 4 -1 11 7 16 19 12 27 3 12 -12z m8 -26 c0
-5 -7 -9 -15 -9 -8 0 -12 4 -9 9 3 4 9 8 15 8 5 0 9 -4 9 -8z m-3923 -58 c-3
-3 -12 -4 -19 -1 -8 3 -5 6 6 6 11 1 17 -2 13 -5z m60 0 c-3 -3 -12 -4 -19 -1
-8 3 -5 6 6 6 11 1 17 -2 13 -5z m3794 -27 c13 3 20 2 16 -2 -13 -15 -64 -14
-64 1 0 9 4 11 12 4 6 -5 22 -6 36 -3z m-108 -34 c-7 -2 -19 -2 -25 0 -7 3 -2
5 12 5 14 0 19 -2 13 -5z m1114 -398 c111 -37 203 -102 267 -188 22 -28 26
-40 17 -50 -6 -8 -7 -18 -3 -22 4 -5 -1 -5 -11 -2 -16 6 -18 2 -13 -36 11 -81
16 -112 21 -135 4 -15 0 -24 -10 -28 -8 -4 -15 -10 -15 -15 0 -4 8 -5 17 -2
13 5 15 3 9 -13 -4 -10 -14 -43 -21 -72 -14 -54 -76 -165 -99 -179 -7 -5 -15
-16 -19 -26 -5 -13 -14 -16 -34 -12 -19 4 -22 3 -10 -3 16 -7 16 -10 -9 -32
-17 -16 -28 -21 -31 -13 -2 7 -11 9 -19 6 -8 -3 -14 0 -14 6 0 6 -5 11 -11 11
-6 0 -8 -7 -5 -16 4 -12 1 -14 -14 -9 -14 5 -20 2 -20 -10 0 -10 -5 -13 -12
-9 -8 5 -9 2 -5 -9 4 -12 1 -17 -12 -17 -10 0 -21 -3 -25 -7 -3 -4 -17 -8 -29
-10 -19 -2 -20 -1 -5 8 10 5 21 27 24 48 5 34 11 40 37 45 43 9 103 52 116 85
7 14 12 49 13 76 4 102 -55 160 -191 191 -89 20 -106 32 -97 68 6 24 10 26 68
26 33 0 78 -5 98 -11 49 -15 83 -6 100 25 27 52 -21 106 -95 106 -30 0 -35 3
-35 24 0 32 -37 76 -63 76 -34 0 -47 -14 -54 -56 -7 -44 -17 -54 -55 -54 -39
0 -86 -44 -99 -93 -32 -121 45 -222 186 -242 84 -13 97 -20 93 -57 l-3 -33
-84 -3 c-53 -2 -87 1 -91 8 -4 6 -24 13 -45 17 -30 5 -41 2 -51 -12 -33 -45
-1 -118 56 -129 17 -3 44 -9 60 -12 25 -5 30 -11 30 -33 0 -30 16 -56 40 -64
26 -9 -84 2 -115 11 -111 33 -215 112 -274 207 -27 43 -31 46 -25 20 4 -23 3
-26 -5 -15 -6 8 -11 24 -12 35 l0 20 -9 -20 c-12 -28 -12 -37 0 -30 6 3 10 2
10 -4 0 -5 -8 -14 -17 -20 -15 -8 -16 -12 -5 -22 6 -7 12 -20 12 -29 0 -9 23
-45 51 -81 48 -60 49 -62 11 -25 -68 65 -125 194 -138 317 -8 70 16 188 57
278 35 77 130 174 209 213 128 64 278 76 407 33z m327 -291 c3 -8 2 -12 -4 -9
-6 3 -10 10 -10 16 0 14 7 11 14 -7z m-4552 -121 c2 -5 2 -37 0 -73 l-3 -65
-110 3 -109 3 0 -105 0 -106 103 -2 c56 -1 -4 -4 -133 -8 -129 -3 -237 -5
-240 -2 -3 2 -6 84 -8 183 l-3 179 250 0 c137 0 251 -3 253 -7z m-1097 -38
c71 -19 163 -64 217 -108 51 -40 110 -116 101 -130 -3 -5 -2 -7 4 -4 5 3 19
-14 31 -39 22 -44 29 -71 13 -45 -5 8 -7 -17 -6 -60 2 -51 1 -65 -5 -44 l-8
30 -1 -32 c0 -17 4 -35 9 -38 6 -3 10 -11 10 -16 0 -6 -5 -7 -11 -3 -8 4 -9
-13 -5 -60 3 -44 0 -78 -9 -103 -7 -21 -14 -31 -15 -23 0 8 -9 -1 -20 -20 -10
-19 -17 -44 -14 -55 4 -16 3 -17 -5 -5 -9 13 -12 12 -17 -7 -4 -13 -11 -23
-16 -23 -5 0 -7 -10 -4 -22 3 -13 3 -17 0 -10 -10 21 -26 13 -20 -10 3 -13 3
-18 0 -11 -3 8 -27 -6 -66 -37 -33 -27 -75 -56 -92 -64 -17 -8 -37 -24 -44
-35 -7 -12 -18 -21 -25 -21 -6 0 -3 7 7 15 11 8 15 15 8 15 -6 0 -17 -6 -24
-13 -7 -8 -22 -12 -33 -10 -11 2 -14 1 -7 -3 21 -10 13 -24 -13 -24 -14 0 -25
-4 -25 -9 0 -4 16 -6 36 -4 23 2 33 0 29 -7 -3 -6 -11 -8 -16 -5 -5 4 -9 1 -9
-4 0 -6 -8 -11 -18 -11 -29 0 -34 -12 -9 -25 27 -14 66 -8 45 7 -9 7 -8 8 5 4
10 -3 26 -6 35 -7 9 0 -3 -7 -28 -15 -50 -15 -166 -19 -174 -5 -3 4 -16 6 -29
4 -29 -6 -147 39 -209 78 -60 39 -150 135 -188 202 -98 172 -90 398 21 583 58
96 196 195 319 228 73 19 201 20 275 1z m394 -420 c9 -36 9 -38 -4 -21 -8 11
-15 31 -15 45 0 32 5 25 19 -24z m4462 -32 c13 -16 12 -17 -3 -4 -10 7 -18 15
-18 17 0 8 8 3 21 -13z m-3991 -14 c113 -2 161 -5 108 -6 l-97 -4 -4 -217 c-3
-119 -5 -232 -6 -249 0 -23 -5 -33 -16 -33 -8 0 -15 -4 -15 -10 0 -5 -9 -10
-20 -10 -11 0 -23 -7 -26 -15 -4 -8 -10 -12 -15 -9 -5 3 -9 -3 -9 -12 0 -10 3
-14 7 -11 3 4 13 1 21 -6 13 -10 14 -9 8 10 -4 12 -3 24 2 27 5 3 12 -8 16
-25 4 -21 10 -28 18 -23 8 5 8 1 -2 -10 -13 -17 -14 -17 -21 1 -7 15 -8 16 -8
1 -1 -29 -61 -36 -61 -7 0 5 5 9 11 9 5 0 7 -5 3 -11 -4 -7 1 -10 11 -7 10 1
20 9 23 17 3 8 0 11 -6 7 -6 -3 -13 -2 -17 4 -11 18 -35 10 -36 -12 -1 -22 -1
-22 -9 2 -7 24 -8 24 -15 5 -16 -38 -55 -41 -55 -4 0 10 -5 19 -11 19 -6 0 -8
-15 -4 -43 6 -37 4 -43 -13 -44 -18 -1 -19 9 -25 149 -8 180 -9 513 -2 520 3
3 18 4 33 2 15 -1 119 -3 232 -5z m4031 -16 c13 -16 12 -17 -3 -4 -17 13 -22
21 -14 21 2 0 10 -8 17 -17z m544 -13 c-3 -5 -12 -10 -18 -10 -7 0 -6 4 3 10
19 12 23 12 15 0z m-500 -10 c3 -6 -1 -7 -9 -4 -18 7 -21 14 -7 14 6 0 13 -4
16 -10z m-3848 -22 c-3 -8 -6 -5 -6 6 -1 11 2 17 5 13 3 -3 4 -12 1 -19z
m4126 -35 c-7 -2 -21 -2 -30 0 -10 3 -4 5 12 5 17 0 24 -2 18 -5z m44 1 c-3
-3 -12 -4 -19 -1 -8 3 -5 6 6 6 11 1 17 -2 13 -5z m-4888 -170 c1 11 3 17 6
14 8 -8 -6 -58 -16 -58 -5 0 -6 6 -3 13 3 8 -2 20 -11 27 -13 11 -13 15 -3 21
9 6 15 1 20 -14 5 -19 6 -19 7 -3z m-32 -39 c0 -8 -4 -12 -9 -9 -5 3 -6 10 -3
15 9 13 12 11 12 -6z m-51 -70 c-8 -21 4 -46 18 -38 6 3 8 2 4 -2 -5 -5 -20
-10 -35 -11 -20 -2 -24 -1 -13 6 8 5 15 15 16 22 2 31 4 38 10 38 3 0 4 -7 0
-15z m38 -9 c-3 -9 -10 -13 -15 -10 -5 3 -3 11 4 19 15 16 19 13 11 -9z m-34
-60 c0 -2 -7 -9 -15 -16 -13 -11 -14 -10 -9 4 5 14 24 23 24 12z m-160 -10 c0
-3 -4 -8 -10 -11 -5 -3 -10 -1 -10 4 0 6 5 11 10 11 6 0 10 -2 10 -4z m100
-51 c-32 -34 -189 -110 -201 -98 -6 6 -5 10 3 10 23 0 108 35 108 44 0 5 6 9
13 9 21 0 88 61 81 73 -5 8 -3 8 6 0 11 -11 10 -17 -10 -38z m627 -34 c-1 -11
-9 -22 -19 -24 -21 -6 -22 -3 -8 24 14 25 29 25 27 0z m-750 -17 c-3 -3 -12
-4 -19 -1 -8 3 -5 6 6 6 11 1 17 -2 13 -5z m621 -90 c4 2 27 0 52 -4 38 -6 32
-8 -42 -9 -49 0 -88 3 -88 8 0 12 64 19 68 8 2 -4 7 -5 10 -3z m152 -174 c0
-7 38 -8 105 -5 l105 5 0 -67 c0 -36 -3 -63 -7 -59 -4 4 -6 25 -4 46 1 23 -2
40 -8 40 -6 0 -8 7 -4 17 6 15 -2 15 -77 9 -46 -4 -86 -9 -88 -11 -2 -2 -8
-19 -13 -37 l-8 -33 3 33 c1 17 -1 32 -4 32 -9 0 -20 -138 -20 -241 l0 -76
-31 -7 c-17 -3 -78 -6 -135 -6 l-104 0 0 185 0 185 145 0 c91 0 145 -4 145
-10z m-42 -509 l32 -1 0 -107 c0 -70 4 -103 9 -93 6 8 7 18 5 22 -3 4 -1 8 4
8 6 0 8 -19 6 -42 -3 -25 -1 -36 3 -26 5 10 8 -17 8 -61 0 -85 6 -101 29 -82
11 9 20 10 35 2 26 -14 52 -15 31 -1 -8 5 -10 10 -4 10 5 0 15 -5 22 -12 16
-16 28 -2 13 15 -8 11 -8 21 3 43 10 19 17 23 20 13 17 -56 21 -47 26 61 l6
115 2 -154 c2 -143 1 -153 -15 -140 -11 10 -14 10 -9 2 5 -10 -16 -13 -98 -13
l-105 0 1 -97 0 -98 -133 0 -133 0 -2 315 c-1 173 0 318 2 322 4 6 64 6 242
-1z m49 -113 c-3 -8 -6 -5 -6 6 -1 11 2 17 5 13 3 -3 4 -12 1 -19z m183 -118
c0 -51 -19 -72 -21 -22 0 15 -2 37 -3 50 -2 13 3 22 11 22 9 0 13 -15 13 -50z
m-93 14 c-3 -3 -12 -4 -19 -1 -8 3 -5 6 6 6 11 1 17 -2 13 -5z m4698 -43 c22
-10 51 -30 65 -45 21 -23 22 -29 10 -36 -8 -5 -19 -10 -25 -10 -5 0 -5 4 2 8
7 5 9 13 4 21 -6 10 -11 6 -15 -16 -4 -19 -26 -44 -62 -73 -31 -25 -67 -58
-80 -73 l-24 -29 -78 76 -77 76 45 40 c86 78 158 97 235 61z m-2585 -110 c0
-5 -7 -11 -14 -14 -10 -4 -13 -1 -9 9 6 15 23 19 23 5z m-215 -31 c-3 -5 -11
-10 -16 -10 -6 0 -7 5 -4 10 3 6 11 10 16 10 6 0 7 -4 4 -10z m-141 -15 c3 -8
-3 -19 -14 -25 -27 -15 -34 -12 -16 6 9 8 14 20 11 25 -4 5 -2 9 3 9 6 0 12
-7 16 -15z m96 -15 c0 -5 -5 -10 -11 -10 -5 0 -7 5 -4 10 3 6 8 10 11 10 2 0
4 -4 4 -10z m-623 -82 c-3 -8 -6 -5 -6 6 -1 11 2 17 5 13 3 -3 4 -12 1 -19z
m60 0 c-3 -8 -6 -5 -6 6 -1 11 2 17 5 13 3 -3 4 -12 1 -19z m-22 3 c3 -5 1
-12 -5 -16 -5 -3 -10 1 -10 9 0 18 6 21 15 7z m3118 -129 l137 -137 -223 -220
c-122 -121 -245 -242 -274 -269 l-52 -49 -135 135 c-75 74 -136 140 -136 147
0 30 508 531 539 531 3 0 68 -62 144 -138z m-3086 86 c-3 -8 -6 -5 -6 6 -1 11
2 17 5 13 3 -3 4 -12 1 -19z m0 -40 c-3 -8 -6 -5 -6 6 -1 11 2 17 5 13 3 -3 4
-12 1 -19z m30 -10 c-3 -8 -6 -5 -6 6 -1 11 2 17 5 13 3 -3 4 -12 1 -19z
m1793 -319 c135 -45 255 -85 267 -90 l23 -8 -24 -63 -23 -63 -184 -67 c-101
-37 -214 -78 -250 -91 -59 -22 -69 -23 -97 -11 l-32 13 60 57 c33 31 60 61 60
66 0 5 -10 12 -22 17 -13 5 -34 21 -47 35 l-25 26 -1630 0 -1631 0 -3 125 -3
125 1638 3 c901 1 1647 3 1658 5 11 1 130 -35 265 -79z m-3780 -54 l0 -125
-185 0 c-185 0 -185 0 -187 -22 0 -13 -4 40 -9 117 -5 102 -4 142 4 147 7 4
94 8 195 8 l182 0 0 -125z m5192 -167 c-7 -7 -12 -8 -12 -2 0 14 12 26 19 19
2 -3 -1 -11 -7 -17z m-5565 -50 c-3 -7 -5 -2 -5 12 0 14 2 19 5 13 2 -7 2 -19
0 -25z m4764 -201 c42 -46 58 -72 51 -79 -23 -23 -453 -234 -447 -219 4 9 13
34 20 56 11 34 120 331 154 418 l11 28 75 -68 c41 -37 103 -98 136 -136z
m-4713 90 l47 -3 -52 -2 -53 -2 1 33 c2 29 2 29 6 5 4 -24 9 -27 51 -31z m559
19 c-5 -12 6 -16 46 -19 l52 -3 -57 -2 c-52 -2 -58 0 -58 18 0 11 5 20 11 20
6 0 9 -7 6 -14z m-444 -23 c-7 -2 -21 -2 -30 0 -10 3 -4 5 12 5 17 0 24 -2 18
-5z m1125 0 c-103 -2 -274 -2 -380 0 -106 1 -22 2 187 2 209 0 296 -1 193 -2z
m245 0 c-7 -2 -19 -2 -25 0 -7 3 -2 5 12 5 14 0 19 -2 13 -5z m60 0 c-7 -2
-21 -2 -30 0 -10 3 -4 5 12 5 17 0 24 -2 18 -5z m239 0 c-40 -2 -103 -2 -140
0 -37 2 -4 3 73 3 77 0 107 -2 67 -3z m336 0 c-38 -2 -98 -2 -135 0 -38 2 -7
3 67 3 74 0 105 -1 68 -3z m165 0 c-18 -2 -48 -2 -65 0 -18 2 -4 4 32 4 36 0
50 -2 33 -4z m155 0 c-21 -2 -57 -2 -80 0 -24 2 -7 4 37 4 44 0 63 -2 43 -4z
m145 0 c-13 -2 -33 -2 -45 0 -13 2 -3 4 22 4 25 0 35 -2 23 -4z m270 0 c-34
-2 -93 -2 -130 0 -37 2 -9 3 62 3 72 0 102 -1 68 -3z m190 0 c-24 -2 -62 -2
-85 0 -24 2 -5 4 42 4 47 0 66 -2 43 -4z m175 0 c-16 -2 -40 -2 -55 0 -16 2
-3 4 27 4 30 0 43 -2 28 -4z m275 0 c-24 -2 -62 -2 -85 0 -24 2 -5 4 42 4 47
0 66 -2 43 -4z m1681 -128 c-4 -8 -11 -12 -16 -9 -6 4 -5 10 3 15 19 12 19 11
13 -6z m-980 -22 c-4 -16 -15 -46 -24 -68 -9 -22 -32 -88 -51 -147 l-33 -107
-86 -36 c-354 -146 -813 -243 -1259 -264 -224 -11 -183 -11 -426 0 -617 28
-1253 199 -1830 492 l-110 56 1765 1 1765 0 140 49 c77 28 143 50 148 50 4 1
4 -11 1 -26z m879 -54 c-15 -15 11 -43 33 -35 8 3 12 2 9 -4 -9 -14 -31 -12
-48 5 -13 13 -18 12 -41 -6 -21 -16 -24 -24 -16 -39 7 -13 6 -19 -6 -24 -12
-4 -14 -1 -9 14 8 26 -5 25 -39 -1 -14 -11 -26 -18 -26 -15 0 3 33 30 73 60
69 53 94 69 70 45z m57 7 c0 -3 -4 -8 -10 -11 -5 -3 -10 -1 -10 4 0 6 5 11 10
11 6 0 10 -2 10 -4z m-5222 -36 c30 0 52 -4 52 -11 0 -5 -4 -8 -9 -5 -5 4 -20
2 -34 -3 -14 -5 -28 -7 -31 -3 -4 3 -12 7 -19 8 -7 1 -23 7 -37 13 l-25 12 25
-6 c14 -2 49 -5 78 -5z m5067 -79 c-3 -6 -11 -11 -17 -11 -6 0 -6 6 2 15 14
17 26 13 15 -4z m-123 -51 l-22 -19 21 -6 c11 -4 18 -9 16 -12 -3 -2 -15 1
-28 7 l-22 12 24 19 c31 24 41 24 11 -1z m88 16 c0 -2 -7 -7 -16 -10 -8 -3
-12 -2 -9 4 6 10 25 14 25 6z m-39 -23 c13 -16 12 -17 -3 -4 -10 7 -18 15 -18
17 0 8 8 3 21 -13z m19 -33 c0 -5 -5 -10 -11 -10 -5 0 -7 5 -4 10 3 6 8 10 11
10 2 0 4 -4 4 -10z m-120 -30 c0 -5 -8 -10 -17 -10 -15 0 -16 2 -3 10 19 12
20 12 20 0z m20 -20 c0 -13 -6 -20 -17 -19 -11 0 -13 3 -5 6 6 2 12 11 12 19
0 8 2 14 5 14 3 0 5 -9 5 -20z m-72 -7 c-10 -2 -18 -9 -18 -15 0 -6 -3 -9 -6
-5 -10 10 6 27 24 26 15 -1 15 -2 0 -6z m-100 -69 c14 -15 14 -16 -3 -13 -10
2 -20 10 -23 17 -5 17 6 15 26 -4z m-88 -4 c-8 -5 -19 -10 -25 -10 -5 0 -3 5
5 10 8 5 20 10 25 10 6 0 3 -5 -5 -10z m25 -20 c3 -5 1 -10 -4 -10 -6 0 -11 5
-11 10 0 6 2 10 4 10 3 0 8 -4 11 -10z m21 -25 c-8 -8 -18 -15 -22 -15 -3 0
-1 7 6 15 7 8 17 15 22 15 5 0 3 -7 -6 -15z m-13 -52 c18 -6 24 -33 7 -33 -5
0 -10 5 -10 11 0 6 -7 9 -15 5 -9 -3 -15 0 -15 10 0 8 -7 17 -15 20 -8 4 -15
11 -15 16 0 6 10 3 23 -6 12 -9 30 -19 40 -23z m17 17 c0 -5 -4 -10 -10 -10
-5 0 -10 5 -10 10 0 6 5 10 10 10 6 0 10 -4 10 -10z m-190 -14 c0 -3 -4 -8
-10 -11 -5 -3 -10 -1 -10 4 0 6 5 11 10 11 6 0 10 -2 10 -4z m-83 -28 c-3 -8
-6 -5 -6 6 -1 11 2 17 5 13 3 -3 4 -12 1 -19z m47 5 c-5 -5 -12 -12 -16 -18
-4 -6 -8 -2 -8 8 0 9 7 17 17 17 9 0 12 -3 7 -7z m56 -3 c0 -5 -2 -10 -4 -10
-3 0 -8 5 -11 10 -3 6 -1 10 4 10 6 0 11 -4 11 -10z m-145 -10 c3 -5 1 -10 -4
-10 -6 0 -11 5 -11 10 0 6 2 10 4 10 3 0 8 -4 11 -10z m109 -15 c-7 -16 -24
-21 -24 -6 0 8 7 13 27 20 1 1 0 -6 -3 -14z m-87 -17 c-3 -8 -6 -5 -6 6 -1 11
2 17 5 13 3 -3 4 -12 1 -19z m-17 -13 c0 -8 -2 -15 -4 -15 -2 0 -6 7 -10 15
-3 8 -1 15 4 15 6 0 10 -7 10 -15z m-133 -9 c0 -8 -8 -11 -21 -8 -19 5 -19 6
0 13 10 4 19 8 20 8 0 1 1 -5 1 -13z m83 10 c0 -3 -4 -8 -10 -11 -5 -3 -10 -1
-10 4 0 6 5 11 10 11 6 0 10 -2 10 -4z m157 -13 c2 -6 -11 -16 -29 -22 l-33
-11 22 19 c12 10 19 22 15 26 -4 4 -1 6 7 3 8 -2 16 -9 18 -15z m-132 -13 c3
-5 1 -10 -4 -10 -6 0 -11 5 -11 10 0 6 2 10 4 10 3 0 8 -4 11 -10z m-185 -10
c-8 -5 -22 -9 -30 -9 -10 0 -8 3 5 9 27 12 43 12 25 0z m27 -20 c1 -11 -2 -20
-7 -20 -6 0 -7 17 -1 38 3 8 7 -1 8 -18z m-117 -15 c-7 -8 -22 -15 -34 -14
-18 0 -16 3 9 14 39 18 40 18 25 0z m-2810 -45 c-20 -13 -33 -13 -25 0 3 6 14
10 23 10 15 0 15 -2 2 -10z m2507 -46 c-3 -3 -12 -4 -19 -1 -8 3 -5 6 6 6 11
1 17 -2 13 -5z m-40 -10 c-3 -3 -12 -4 -19 -1 -8 3 -5 6 6 6 11 1 17 -2 13 -5z
m-80 -20 c-3 -3 -12 -4 -19 -1 -8 3 -5 6 6 6 11 1 17 -2 13 -5z m-337 -94 c0
-5 -4 -10 -10 -10 -5 0 -10 5 -10 10 0 6 5 10 10 10 6 0 10 -4 10 -10z"/>
<path d="M3562 7923 c-6 -16 -14 -44 -17 -64 -14 -79 -77 -139 -145 -139 -44
0 -84 -20 -88 -43 -6 -28 27 -57 62 -57 54 0 104 -20 130 -51 24 -28 30 -46
53 -139 6 -26 15 -36 31 -38 32 -5 50 14 58 57 18 110 58 154 149 166 54 6 95
30 95 55 0 27 -41 50 -90 50 -43 0 -55 5 -89 35 -27 25 -42 49 -51 82 -28 110
-30 113 -60 113 -21 0 -30 -7 -38 -27z"/>
<path d="M4329 7777 c-23 -15 -38 -37 -48 -65 -39 -122 104 -226 200 -145 68
58 73 138 12 199 -29 29 -40 34 -82 34 -33 0 -58 -7 -82 -23z"/>
<path d="M1505 6003 c-72 -14 -105 -51 -105 -118 0 -70 45 -115 113 -115 96 1
152 116 92 188 -27 32 -68 50 -100 45z"/>
<path d="M1372 5426 c-55 -30 -79 -117 -49 -176 22 -43 76 -72 125 -67 113 12
158 143 77 224 -28 28 -40 33 -81 33 -27 -1 -59 -6 -72 -14z"/>
<path d="M1910 5390 c-27 -27 -35 -65 -20 -101 15 -36 37 -49 83 -49 73 0 109
99 52 147 -33 29 -87 31 -115 3z"/>
<path d="M7620 3539 c-31 -13 -40 -26 -40 -65 0 -58 18 -64 196 -64 87 0 164
4 170 8 15 10 34 47 34 67 0 9 -11 27 -25 40 -23 24 -28 25 -167 24 -79 0
-154 -5 -168 -10z"/>
<path d="M2112 3118 c-5 -7 -15 -33 -22 -58 -26 -96 -70 -140 -143 -140 -55 0
-77 -15 -77 -51 0 -38 16 -44 113 -48 49 -1 85 -40 112 -118 18 -53 22 -58 50
-58 32 0 42 14 66 94 19 61 49 80 139 89 73 7 75 8 78 36 5 39 -8 48 -79 57
-82 10 -121 46 -150 141 -18 63 -22 68 -48 68 -16 0 -33 -6 -39 -12z"/>
<path d="M5540 7351 c-5 -11 -10 -33 -10 -49 0 -27 -4 -31 -44 -41 -64 -16
-86 -48 -86 -125 0 -107 57 -160 186 -173 57 -6 78 -20 69 -46 -12 -29 -162
-39 -185 -12 -15 18 -51 20 -68 3 -21 -21 -14 -73 14 -99 19 -18 37 -24 70
-24 44 0 44 0 44 -35 0 -45 24 -80 55 -80 32 0 59 40 53 80 -4 26 -1 30 19 30
71 0 131 84 118 166 -10 66 -53 109 -130 129 -32 8 -67 15 -77 15 -10 0 -27 9
-39 21 -17 17 -18 23 -8 36 11 13 30 14 114 9 55 -4 105 -3 112 1 6 5 16 20
22 35 16 43 -13 70 -82 76 l-57 4 0 39 c0 28 -5 41 -19 49 -30 16 -59 12 -71
-9z"/>
<path d="M6011 7174 c0 -11 3 -14 6 -6 3 7 2 16 -1 19 -3 4 -6 -2 -5 -13z"/>
<path d="M5975 7150 c-3 -5 -1 -10 4 -10 6 0 11 5 11 10 0 6 -2 10 -4 10 -3 0
-8 -4 -11 -10z"/>
<path d="M5309 6683 c-13 -16 -12 -17 4 -4 9 7 17 15 17 17 0 8 -8 3 -21 -13z"/>
<path d="M3160 6860 c-14 -9 -7 -14 13 -11 4 1 5 -11 2 -26 -5 -27 -5 -27 5
-5 13 30 1 55 -20 42z"/>
<path d="M3111 6304 c0 -11 3 -14 6 -6 3 7 2 16 -1 19 -3 4 -6 -2 -5 -13z"/>
<path d="M2836 6031 c-4 -7 -5 -15 -2 -18 9 -9 19 4 14 18 -4 11 -6 11 -12 0z"/>
<path d="M2660 5960 c0 -5 5 -10 11 -10 5 0 7 5 4 10 -3 6 -8 10 -11 10 -2 0
-4 -4 -4 -10z"/>
<path d="M3969 6281 c-55 -8 -88 -28 -126 -78 l-28 -36 -5 -956 c-4 -716 -2
-964 7 -988 14 -39 43 -55 91 -51 l37 3 1 945 c0 721 3 950 12 967 18 33 81
46 196 41 88 -5 102 -8 118 -28 17 -21 18 -61 17 -789 0 -437 -4 -757 -9 -746
l-9 20 -1 -20 -1 -20 -9 20 c-8 18 -9 17 -9 -7 -1 -24 -5 -28 -31 -28 -16 0
-30 -4 -30 -10 0 -5 8 -10 18 -10 13 0 18 -9 19 -39 l2 -39 -40 0 c-44 -1 -76
-27 -58 -48 11 -13 1 -24 -21 -24 -13 0 -16 -7 -14 -26 1 -16 -2 -24 -9 -21
-7 2 -12 11 -12 20 0 8 -3 19 -7 22 -3 4 -6 -15 -6 -42 1 -26 3 -40 5 -31 4
16 6 16 19 4 18 -19 18 -26 -2 -26 -13 0 -14 -3 -4 -15 12 -15 6 -35 -12 -35
-5 0 -8 7 -5 15 4 8 0 27 -8 42 -8 15 -12 37 -9 48 4 14 3 16 -4 7 -5 -8 -13
-13 -18 -12 -5 1 -10 -4 -12 -12 -3 -11 -2 -11 6 0 7 11 10 10 16 -3 8 -22 8
-27 -3 -21 -5 3 -11 -1 -14 -8 -4 -10 0 -13 14 -11 27 5 19 -17 -12 -32 -13
-7 -18 -13 -10 -13 8 0 11 -6 7 -15 -5 -14 11 -16 122 -17 70 0 244 -2 387 -4
l261 -3 -2 252 c-1 249 4 315 29 334 6 6 72 13 145 17 l132 7 25 -27 25 -27 0
-263 c0 -179 -3 -264 -11 -264 -5 0 -7 5 -4 10 3 6 1 10 -4 10 -6 0 -11 -4
-11 -9 0 -16 -60 -9 -71 8 -9 14 -10 14 -5 -1 4 -15 -1 -18 -32 -19 -35 0 -36
-1 -12 -10 14 -6 53 -9 88 -7 34 2 62 1 62 -2 0 -4 254 -7 564 -8 l565 -2 20
26 c20 26 21 38 21 396 0 411 -1 414 -66 464 l-37 29 -204 3 -203 3 -1 122
c-2 239 -10 272 -82 309 -39 20 -54 21 -245 19 -209 -2 -240 -7 -280 -44 -55
-51 -57 -63 -54 -319 l3 -238 -116 0 -115 0 0 501 c0 548 0 546 -58 586 -23
16 -54 18 -223 21 l-197 3 -4 65 c-6 90 -50 145 -134 164 -43 11 -254 11 -325
1z m737 -397 l59 -6 -3 -282 c-2 -154 -8 -285 -12 -290 -5 -5 -6 11 -3 35 6
38 5 41 -9 28 -9 -8 -12 -15 -7 -17 5 -2 9 -8 9 -13 0 -6 -4 -7 -10 -4 -5 3
-10 -3 -10 -14 0 -14 -6 -21 -19 -21 -11 0 -23 -5 -26 -11 -4 -6 -14 -8 -22
-5 -18 7 -9 -29 16 -59 15 -18 15 -19 -1 -7 -12 10 -22 11 -36 3 -10 -5 -28
-8 -39 -5 -15 4 -26 -3 -42 -25 -12 -17 -20 -35 -16 -41 8 -13 -13 -50 -29
-50 -8 0 -16 -9 -19 -19 -5 -19 7 -20 38 -2 6 3 0 -4 -13 -15 -14 -12 -26 -32
-28 -45 -2 -13 -8 -44 -14 -69 -7 -25 -10 -71 -8 -102 2 -32 1 -58 -4 -58 -4
0 -8 -8 -8 -17 0 -15 2 -16 10 -3 7 11 10 6 10 -22 0 -20 -5 -38 -11 -40 -6
-2 -14 -56 -18 -128 -5 -82 -9 116 -10 571 -1 819 -15 739 128 739 48 0 115
-3 147 -6z m923 -530 c20 -25 21 -39 21 -250 0 -123 -4 -224 -9 -224 -9 0 -24
-13 -148 -131 -46 -43 -83 -82 -83 -87 0 -6 -7 -13 -16 -16 -8 -3 -12 -10 -9
-16 3 -5 0 -7 -8 -5 -7 3 -26 -9 -43 -27 -24 -28 -29 -41 -28 -83 0 -27 -2
-41 -5 -30 -3 11 -8 -32 -12 -95 -3 -63 -6 123 -7 413 l-2 528 25 24 c23 24
29 25 164 25 139 0 140 0 160 -26z m-878 -105 c-9 -22 -10 -22 -10 -3 -1 11 2
24 6 27 12 12 14 0 4 -24z m-168 -69 c-9 -11 -19 -17 -21 -15 -6 6 18 35 29
35 5 0 1 -9 -8 -20z m97 0 c0 -5 -4 -10 -10 -10 -5 0 -10 5 -10 10 0 6 5 10
10 10 6 0 10 -4 10 -10z m80 -228 c0 -4 -15 -14 -34 -20 -32 -12 -53 -35 -83
-92 -12 -23 -13 -23 -13 -4 0 11 3 24 8 28 4 4 7 12 7 17 0 5 4 9 9 8 5 0 13
6 18 15 5 9 26 25 46 36 44 23 42 22 42 12z m113 1 c-7 -2 -21 -2 -30 0 -10 3
-4 5 12 5 17 0 24 -2 18 -5z m1243 -57 c15 -21 19 -83 6 -102 -4 -6 -21 -18
-38 -27 -16 -8 -53 -41 -81 -71 -28 -31 -55 -56 -62 -56 -6 0 -11 -7 -11 -15
0 -8 -19 -31 -42 -52 -82 -75 -88 -83 -88 -131 0 -25 -3 -42 -7 -38 -4 4 -6
114 -5 244 4 299 -10 279 180 272 117 -4 135 -7 148 -24z m-1586 -26 c0 -5 -4
-10 -9 -10 -6 0 -13 5 -16 10 -3 6 1 10 9 10 9 0 16 -4 16 -10z m1120 -30 c0
-11 -2 -20 -4 -20 -2 0 -6 9 -9 20 -3 11 -1 20 4 20 5 0 9 -9 9 -20z m-1130
-30 c0 -5 -4 -10 -10 -10 -5 0 -10 5 -10 10 0 6 5 10 10 10 6 0 10 -4 10 -10z
m108 -102 l-1 -83 -6 65 c-3 36 -4 73 -2 83 7 37 11 14 9 -65z m-1 -135 c-3
-10 -5 -2 -5 17 0 19 2 27 5 18 2 -10 2 -26 0 -35z m-371 -85 c-16 -22 -16
-22 -16 -1 0 12 6 23 13 26 19 7 20 0 3 -25z m34 -20 c0 -4 -7 -8 -15 -8 -8 0
-15 4 -15 8 0 5 7 9 15 9 8 0 15 -4 15 -9z m147 -65 c-3 -10 -5 -2 -5 17 0 19
2 27 5 18 2 -10 2 -26 0 -35z m-155 0 c-5 -59 -10 -63 -11 -10 -1 26 3 47 7
47 4 0 6 -17 4 -37z m-25 -15 c-3 -8 -6 -5 -6 6 -1 11 2 17 5 13 3 -3 4 -12 1
-19z m20 -120 c-2 -13 -4 -3 -4 22 0 25 2 35 4 23 2 -13 2 -33 0 -45z"/>
<path d="M4618 5253 c-10 -2 -18 -9 -18 -14 0 -14 16 -11 30 6 7 8 11 14 9 14
-2 -1 -12 -3 -21 -6z"/>
<path d="M4492 5138 c-14 -14 -16 -28 -3 -28 9 0 24 30 18 36 -2 2 -9 -2 -15
-8z"/>
<path d="M6076 4865 c4 -8 8 -15 10 -15 2 0 4 7 4 15 0 8 -4 15 -10 15 -5 0
-7 -7 -4 -15z"/>
<path d="M5253 5998 c-40 -11 -73 -52 -73 -92 0 -77 76 -130 145 -102 123 52
57 229 -72 194z"/>
<path d="M4261 4614 c0 -11 3 -14 6 -6 3 7 2 16 -1 19 -3 4 -6 -2 -5 -13z"/>
<path d="M4208 4573 c6 -2 18 -2 25 0 6 3 1 5 -13 5 -14 0 -19 -2 -12 -5z"/>
<path d="M4168 4543 c7 -3 16 -2 19 1 4 3 -2 6 -13 5 -11 0 -14 -3 -6 -6z"/>
<path d="M4180 4490 c0 -5 7 -10 15 -10 8 0 15 5 15 10 0 6 -7 10 -15 10 -8 0
-15 -4 -15 -10z"/>
<path d="M4157 4463 c-4 -3 -7 -11 -7 -17 0 -6 5 -5 12 2 6 6 9 14 7 17 -3 3
-9 2 -12 -2z"/>
<path d="M4090 4390 c0 -5 5 -10 10 -10 6 0 10 5 10 10 0 6 -4 10 -10 10 -5 0
-10 -4 -10 -10z"/>
<path d="M3968 4183 c6 -2 18 -2 25 0 6 3 1 5 -13 5 -14 0 -19 -2 -12 -5z"/>
<path d="M4965 3703 c-103 -2 -179 -7 -192 -14 -32 -17 -56 -74 -49 -113 4
-18 18 -44 32 -57 l26 -24 816 -3 c449 -2 873 0 941 3 119 7 126 8 153 35 40
40 39 100 -1 141 -24 24 -38 29 -78 29 -277 3 -1517 4 -1648 3z"/>
<path d="M4063 3682 c-194 -69 -288 -281 -213 -477 42 -111 176 -203 307 -212
125 -8 245 53 314 160 50 77 62 124 57 217 -7 128 -79 235 -197 296 -72 37
-190 44 -268 16z m188 -141 c65 -29 130 -105 113 -133 -4 -7 -3 -8 4 -4 8 5
12 -2 12 -20 0 -27 -1 -27 -15 -8 -8 10 -15 28 -15 38 0 26 -12 13 -15 -16 -1
-13 -3 -29 -4 -35 0 -7 -11 -13 -24 -13 -15 0 -29 -11 -40 -29 -10 -17 -26
-33 -37 -36 -11 -4 -20 -10 -20 -15 0 -5 -27 -17 -61 -26 -42 -12 -58 -21 -55
-30 3 -8 -1 -14 -8 -14 -8 0 -12 10 -10 26 2 24 1 24 -15 10 -16 -14 -19 -14
-36 2 -19 17 -19 17 -1 -5 10 -13 23 -20 29 -16 6 3 7 1 3 -6 -4 -6 0 -14 11
-18 10 -3 24 -11 32 -17 8 -6 35 -16 60 -23 l46 -12 -45 6 c-83 10 -154 63
-184 135 -69 165 109 332 275 259z m99 -304 c0 -2 -10 -12 -21 -23 -22 -19
-22 -19 -8 4 12 19 29 30 29 19z m-113 -83 c-3 -3 -12 -4 -19 -1 -8 3 -5 6 6
6 11 1 17 -2 13 -5z"/>
<path d="M4759 3271 c-50 -51 -36 -137 28 -170 14 -7 101 -11 248 -11 235 0
254 3 287 44 37 45 16 127 -39 155 -14 7 -104 11 -258 11 l-237 0 -29 -29z"/>
<path d="M5551 3286 c-64 -36 -68 -127 -7 -178 20 -16 57 -17 569 -15 l549 2
29 33 c47 53 35 127 -26 157 -29 13 -105 15 -562 15 -419 -1 -533 -3 -552 -14z"/>
<path d="M5614 2890 c-72 -6 -100 -26 -110 -76 -8 -42 21 -104 56 -121 19 -10
151 -13 548 -13 559 0 576 1 602 50 29 54 4 145 -43 154 -32 7 -980 12 -1053
6z"/>
<path d="M5306 2867 c3 -10 9 -15 12 -12 3 3 0 11 -7 18 -10 9 -11 8 -5 -6z"/>
<path d="M5272 2776 c7 -8 15 -12 17 -11 5 6 -10 25 -20 25 -5 0 -4 -6 3 -14z"/>
<path d="M5302 2765 c0 -16 2 -22 5 -12 2 9 2 23 0 30 -3 6 -5 -1 -5 -18z"/>
<path d="M5050 2695 c7 -9 15 -13 17 -11 7 7 -7 26 -19 26 -6 0 -6 -6 2 -15z"/>
<path d="M5020 2681 c0 -5 7 -11 15 -15 8 -3 15 -1 15 3 0 5 -7 11 -15 15 -8
3 -15 1 -15 -3z"/>
<path d="M4945 2670 c3 -5 8 -10 11 -10 2 0 4 5 4 10 0 6 -5 10 -11 10 -5 0
-7 -4 -4 -10z"/>
<path d="M4305 2550 c-7 -12 2 -12 30 0 19 8 19 9 -2 9 -12 1 -25 -3 -28 -9z"/>
<path d="M4319 2517 c-1 -9 -2 -22 -3 -29 0 -7 -16 -15 -34 -19 -39 -8 -67
-29 -39 -29 9 0 17 5 17 10 0 6 14 10 31 10 17 0 28 -4 24 -10 -3 -5 -2 -10 4
-10 5 0 13 5 16 10 3 6 2 10 -4 10 -7 0 -7 9 1 25 9 19 9 28 0 37 -9 9 -12 8
-13 -5z"/>
<path d="M6361 6341 c-7 -5 -21 -33 -31 -62 l-19 -54 -53 -5 c-29 -3 -59 -9
-65 -13 -24 -15 -13 -51 27 -92 l40 -41 -15 -43 c-19 -55 -19 -66 1 -85 23
-23 63 -19 105 10 l38 26 38 -26 c86 -59 141 -21 110 75 l-16 51 45 41 c24 22
44 44 44 49 0 4 -9 17 -20 28 -15 15 -33 20 -73 20 l-53 0 -18 55 c-20 64 -50
88 -85 66z"/>
<path d="M6657 5891 c-4 -17 -3 -21 5 -13 5 5 8 16 6 23 -3 8 -7 3 -11 -10z"/>
<path d="M7774 5069 c0 -12 8 -25 16 -27 13 -5 13 -3 0 13 -8 10 -13 20 -12
22 2 3 2 7 -1 9 -2 3 -4 -5 -3 -17z"/>
<path d="M7631 4604 c0 -11 3 -14 6 -6 3 7 2 16 -1 19 -3 4 -6 -2 -5 -13z"/>
<path d="M2032 4671 c-8 -4 -16 -26 -19 -48 -5 -39 -8 -41 -45 -47 -111 -18
-150 -166 -70 -265 40 -49 74 -67 166 -86 44 -9 83 -18 88 -21 16 -10 8 -63
-11 -74 -33 -17 -141 -12 -190 10 -54 25 -63 25 -86 0 -13 -14 -16 -28 -11
-53 9 -50 47 -81 109 -87 l52 -5 6 -43 c6 -50 27 -74 64 -74 37 0 47 13 53 71
4 50 5 51 37 51 42 0 95 36 118 80 13 26 17 51 15 97 -6 104 -55 149 -193 178
-93 20 -118 35 -113 69 3 20 8 21 123 22 66 0 130 4 142 8 30 10 37 39 18 75
-20 39 -43 51 -99 51 -45 0 -46 0 -46 33 0 20 -8 41 -18 50 -20 18 -68 22 -90
8z"/>
<path d="M1948 3863 c7 -3 16 -2 19 1 4 3 -2 6 -13 5 -11 0 -14 -3 -6 -6z"/>
<path d="M1976 3841 c-3 -4 6 -7 19 -5 33 3 35 -35 3 -44 -21 -6 -21 -7 7 -13
26 -6 23 -7 -17 -8 -47 -1 -53 4 -49 35 1 7 -6 14 -14 18 -9 3 -13 2 -10 -3 3
-5 -4 -16 -15 -24 -18 -13 -19 -15 -5 -21 9 -3 13 -2 10 4 -9 15 6 12 24 -4
25 -21 99 -27 116 -9 18 18 20 43 3 43 -10 0 -9 3 1 9 11 7 10 11 -7 20 -25
13 -59 14 -66 2z"/>
<path d="M2095 3837 c-21 -13 -33 -47 -15 -47 5 0 9 5 8 12 -2 6 7 17 20 23
12 7 25 15 29 19 10 10 -20 5 -42 -7z"/>
<path d="M1965 3820 c-17 -7 -17 -9 -2 -9 9 -1 20 -1 24 -2 4 0 9 4 11 10 4
13 -5 13 -33 1z"/>
<path d="M1950 3790 c0 -5 5 -10 10 -10 6 0 10 5 10 10 0 6 -4 10 -10 10 -5 0
-10 -4 -10 -10z"/>
<path d="M2060 3750 c-12 -8 -11 -10 8 -10 12 0 22 5 22 10 0 13 -11 13 -30 0z"/>
<path d="M2900 3880 c-8 -5 -12 -11 -9 -14 2 -3 11 -1 19 4 8 5 12 11 9 14 -2
3 -11 1 -19 -4z"/>
<path d="M2961 3870 c0 -8 4 -22 9 -30 12 -18 12 -2 0 25 -6 13 -9 15 -9 5z"/>
<path d="M2995 3871 c-3 -5 -1 -12 5 -16 5 -3 10 1 10 9 0 18 -6 21 -15 7z"/>
<path d="M2879 3810 c-7 -35 -4 -48 7 -38 3 4 4 21 2 40 l-3 33 -6 -35z"/>
<path d="M2900 3815 c0 -9 6 -12 15 -9 8 4 15 7 15 9 0 2 -7 5 -15 9 -9 3 -15
0 -15 -9z"/>
<path d="M3090 2664 c0 -8 5 -12 10 -9 6 3 10 10 10 16 0 5 -4 9 -10 9 -5 0
-10 -7 -10 -16z"/>
<path d="M3180 2619 c-20 -6 -17 -7 18 -8 23 -1 42 1 42 3 0 9 -37 12 -60 5z"/>
<path d="M8156 2483 c-6 -14 -5 -15 5 -6 7 7 10 15 7 18 -3 3 -9 -2 -12 -12z"/>
<path d="M8025 2309 c-4 -6 -5 -12 -2 -15 2 -3 7 2 10 11 7 17 1 20 -8 4z"/>
<path d="M7931 2164 c0 -11 3 -14 6 -6 3 7 2 16 -1 19 -3 4 -6 -2 -5 -13z"/>
<path d="M7895 2130 c3 -5 8 -10 11 -10 2 0 4 5 4 10 0 6 -5 10 -11 10 -5 0
-7 -4 -4 -10z"/>
<path d="M7863 2098 c-6 -7 -14 -20 -18 -28 -8 -13 -7 -13 8 -1 9 7 17 9 17 3
0 -5 8 -13 17 -16 15 -6 15 -5 -1 13 -10 11 -15 25 -11 30 9 15 0 14 -12 -1z"/>
<path d="M7798 2023 c-12 -15 -13 -22 -3 -41 l12 -23 5 25 c3 14 1 23 -3 20
-13 -8 -11 10 3 24 7 7 10 12 7 12 -3 0 -13 -8 -21 -17z"/>
<path d="M7870 2019 c0 -5 5 -7 10 -4 6 3 10 8 10 11 0 2 -4 4 -10 4 -5 0 -10
-5 -10 -11z"/>
<path d="M7594 1807 c-45 -45 -95 -93 -111 -107 -27 -22 -29 -28 -20 -50 15
-33 14 -33 26 -25 7 4 5 14 -5 31 -15 22 -15 24 0 24 9 0 16 -8 17 -17 0 -16
1 -16 8 1 7 19 8 19 15 1 4 -11 2 -22 -6 -27 -10 -6 -9 -8 3 -8 20 0 32 37 19
59 -7 13 -9 13 -10 2 0 -8 -3 -12 -6 -8 -3 3 -3 16 1 28 l7 22 13 -23 13 -23
11 21 c8 14 8 22 1 22 -5 0 -10 -6 -10 -12 0 -9 -3 -8 -10 2 -12 20 8 44 25
30 9 -7 15 -7 19 -1 4 5 1 13 -5 16 -7 5 -3 12 10 22 12 8 26 11 33 7 8 -5 9
-2 5 9 -3 10 -3 25 0 34 6 15 7 15 12 0 4 -12 10 -14 21 -7 13 9 13 11 0 19
-12 9 -12 11 3 17 17 6 24 24 10 24 -5 0 -45 -37 -89 -83z m-81 -107 c-3 -12
-8 -19 -11 -16 -5 6 5 36 12 36 2 0 2 -9 -1 -20z"/>
<path d="M7786 1682 c-3 -5 1 -9 9 -9 8 0 12 4 9 9 -3 4 -7 8 -9 8 -2 0 -6 -4
-9 -8z"/>
<path d="M7655 1670 c3 -5 8 -10 11 -10 2 0 4 5 4 10 0 6 -5 10 -11 10 -5 0
-7 -4 -4 -10z"/>
<path d="M7430 1609 c0 -5 9 -9 20 -9 11 0 20 2 20 4 0 2 -9 6 -20 9 -11 3
-20 1 -20 -4z"/>
<path d="M7455 1580 c3 -5 8 -10 11 -10 2 0 4 5 4 10 0 6 -5 10 -11 10 -5 0
-7 -4 -4 -10z"/>
<path d="M7580 1550 c0 -5 5 -10 11 -10 5 0 7 5 4 10 -3 6 -8 10 -11 10 -2 0
-4 -4 -4 -10z"/>
<path d="M7470 1541 c0 -5 -3 -17 -6 -25 -4 -11 -2 -15 8 -11 14 6 20 45 6 45
-4 0 -8 -4 -8 -9z"/>
<path d="M7362 1487 c-9 -11 -10 -17 -2 -22 15 -9 23 -1 18 21 -3 15 -4 16
-16 1z"/>
<path d="M7413 1483 c-21 -8 -15 -22 7 -16 11 3 20 9 20 14 0 10 -8 10 -27 2z"/>
<path d="M2038 1443 c7 -3 16 -2 19 1 4 3 -2 6 -13 5 -11 0 -14 -3 -6 -6z"/>
<path d="M7267 1429 c6 -22 23 -26 23 -5 0 8 -6 16 -14 19 -10 4 -12 0 -9 -14z"/>
<path d="M7425 1440 c3 -5 10 -10 16 -10 5 0 9 5 9 10 0 6 -7 10 -16 10 -8 0
-12 -4 -9 -10z"/>
<path d="M2110 1410 c0 -5 5 -10 11 -10 5 0 7 5 4 10 -3 6 -8 10 -11 10 -2 0
-4 -4 -4 -10z"/>
<path d="M2265 1410 c-3 -5 -1 -10 4 -10 6 0 11 5 11 10 0 6 -2 10 -4 10 -3 0
-8 -4 -11 -10z"/>
<path d="M7345 1410 c3 -5 8 -10 11 -10 2 0 4 5 4 10 0 6 -5 10 -11 10 -5 0
-7 -4 -4 -10z"/>
<path d="M2235 1399 c-4 -6 -5 -12 -2 -15 2 -3 7 2 10 11 7 17 1 20 -8 4z"/>
<path d="M2136 1391 c-3 -4 6 -6 19 -3 14 2 25 6 25 8 0 8 -39 4 -44 -5z"/>
<path d="M7285 1383 c20 -20 45 -20 45 -1 0 5 -4 6 -10 3 -5 -3 -20 -1 -32 6
-23 12 -23 12 -3 -8z"/>
<path d="M2190 1380 c0 -5 5 -10 11 -10 5 0 7 5 4 10 -3 6 -8 10 -11 10 -2 0
-4 -4 -4 -10z"/>
<path d="M2250 1376 c0 -9 5 -16 10 -16 6 0 10 4 10 9 0 6 -4 13 -10 16 -5 3
-10 -1 -10 -9z"/>
<path d="M7355 1379 c-4 -6 -5 -12 -2 -15 2 -3 7 2 10 11 7 17 1 20 -8 4z"/>
<path d="M7253 1367 c5 -12 1 -20 -11 -24 -27 -10 -44 -43 -22 -43 6 0 10 7
10 15 0 13 12 19 32 16 8 -1 1 39 -8 48 -4 3 -4 -2 -1 -12z"/>
<path d="M2359 1353 c10 -4 8 -9 -10 -20 -16 -10 -17 -12 -4 -7 11 4 31 7 45
7 l25 -1 -25 14 c-14 7 -29 13 -35 13 -5 0 -4 -3 4 -6z"/>
<path d="M2310 1335 c-19 -22 -8 -25 13 -3 9 10 13 18 8 18 -5 0 -14 -7 -21
-15z"/>
<path d="M7289 1327 c-16 -13 -34 -61 -18 -51 5 3 9 12 9 20 0 8 4 14 9 14 5
0 11 7 15 15 6 18 6 18 -15 2z"/>
<path d="M2386 1294 c-5 -14 -4 -15 9 -4 17 14 19 20 6 20 -5 0 -12 -7 -15
-16z"/>
<path d="M2422 1290 c-12 -10 -18 -21 -13 -24 5 -3 12 2 15 11 6 15 8 15 16 3
8 -12 10 -10 10 8 0 26 1 26 -28 2z"/>
<path d="M7240 1299 c0 -5 5 -7 10 -4 6 3 10 8 10 11 0 2 -4 4 -10 4 -5 0 -10
-5 -10 -11z"/>
<path d="M7336 1293 c-6 -14 -5 -15 5 -6 7 7 10 15 7 18 -3 3 -9 -2 -12 -12z"/>
<path d="M2260 1290 c0 -5 5 -10 11 -10 5 0 7 5 4 10 -3 6 -8 10 -11 10 -2 0
-4 -4 -4 -10z"/>
<path d="M7188 1283 c6 -2 12 -11 12 -19 0 -8 4 -14 9 -14 5 0 7 9 4 20 -3 11
-13 20 -22 19 -10 0 -11 -2 -3 -6z"/>
<path d="M2480 1233 c0 -7 4 -13 8 -13 5 0 14 -10 20 -22 6 -13 11 -18 11 -12
1 7 -8 22 -19 35 -10 13 -19 18 -20 12z"/>
<path d="M7191 1224 c0 -11 3 -14 6 -6 3 7 2 16 -1 19 -3 4 -6 -2 -5 -13z"/>
<path d="M2534 1209 c0 -10 4 -19 8 -19 4 0 8 6 8 14 0 8 -4 17 -8 20 -4 2 -8
-4 -8 -15z"/>
<path d="M7115 1220 c3 -5 8 -10 11 -10 2 0 4 5 4 10 0 6 -5 10 -11 10 -5 0
-7 -4 -4 -10z"/>
<path d="M2630 1169 c0 -5 5 -7 10 -4 6 3 10 8 10 11 0 2 -4 4 -10 4 -5 0 -10
-5 -10 -11z"/>
<path d="M7008 1173 c7 -3 16 -2 19 1 4 3 -2 6 -13 5 -11 0 -14 -3 -6 -6z"/>
<path d="M6990 1150 c-13 -8 -12 -10 3 -10 9 0 17 5 17 10 0 12 -1 12 -20 0z"/>
<path d="M2650 1140 c0 -5 5 -10 11 -10 5 0 7 5 4 10 -3 6 -8 10 -11 10 -2 0
-4 -4 -4 -10z"/>
<path d="M7028 1143 c7 -3 16 -2 19 1 4 3 -2 6 -13 5 -11 0 -14 -3 -6 -6z"/>
<path d="M2740 1136 c0 -9 30 -14 35 -6 4 6 -3 10 -14 10 -12 0 -21 -2 -21 -4z"/>
<path d="M6850 1130 c0 -5 5 -10 10 -10 6 0 10 5 10 10 0 6 -4 10 -10 10 -5 0
-10 -4 -10 -10z"/>
<path d="M6950 1128 c0 -10 -4 -18 -10 -18 -5 0 -10 -4 -10 -8 0 -5 7 -9 15
-9 8 0 12 4 9 9 -4 5 11 7 33 4 37 -6 38 -6 8 5 -16 7 -33 17 -37 23 -5 7 -8
4 -8 -6z"/>
<path d="M6856 1094 c-8 -20 -4 -25 11 -16 7 4 9 13 4 21 -6 10 -10 9 -15 -5z"/>
<path d="M6684 1085 c3 -8 -1 -21 -9 -29 -13 -12 -12 -15 1 -20 23 -9 54 -7
54 2 0 17 -14 21 -29 9 -14 -11 -14 -10 -2 5 14 19 9 48 -10 48 -6 0 -9 -7 -5
-15z"/>
<path d="M6881 1054 c0 -11 3 -14 6 -6 3 7 2 16 -1 19 -3 4 -6 -2 -5 -13z"/>
<path d="M2830 1050 c0 -5 5 -10 11 -10 5 0 7 5 4 10 -3 6 -8 10 -11 10 -2 0
-4 -4 -4 -10z"/>
<path d="M2910 1051 c0 -5 16 -9 36 -9 25 0 33 3 23 9 -18 11 -59 12 -59 0z"/>
<path d="M2781 1034 c0 -11 3 -14 6 -6 3 7 2 16 -1 19 -3 4 -6 -2 -5 -13z"/>
<path d="M2860 1030 c0 -5 4 -10 9 -10 6 0 13 5 16 10 3 6 -1 10 -9 10 -9 0
-16 -4 -16 -10z"/>
<path d="M2951 1014 c0 -11 3 -14 6 -6 3 7 2 16 -1 19 -3 4 -6 -2 -5 -13z"/>
<path d="M3026 1021 c5 -5 25 -12 44 -15 l35 -6 -35 14 c-42 17 -58 20 -44 7z"/>
<path d="M6906 1018 c3 -5 10 -6 15 -3 13 9 11 12 -6 12 -8 0 -12 -4 -9 -9z"/>
<path d="M6697 946 c-4 -10 -1 -13 8 -9 8 3 12 9 9 14 -7 12 -11 11 -17 -5z"/>
<path d="M3278 933 c7 -3 16 -2 19 1 4 3 -2 6 -13 5 -11 0 -14 -3 -6 -6z"/>
<path d="M6380 935 c0 -11 30 -37 39 -33 5 2 -2 11 -15 21 -13 10 -24 15 -24
12z"/>
<path d="M6447 933 c-4 -3 -7 -13 -7 -22 1 -13 3 -13 11 2 11 19 8 33 -4 20z"/>
<path d="M6570 932 c0 -10 22 -32 32 -32 15 0 8 15 -12 28 -11 7 -20 9 -20 4z"/>
<path d="M6135 897 c-9 -34 10 -60 20 -28 3 11 2 28 -4 38 -8 16 -10 14 -16
-10z"/>
<path d="M6506 910 c-17 -6 -18 -7 -3 -13 9 -3 19 -2 23 4 9 15 2 18 -20 9z"/>
<path d="M6460 880 c0 -11 2 -20 4 -20 2 0 6 9 9 20 3 11 1 20 -4 20 -5 0 -9
-9 -9 -20z"/>
<path d="M3458 878 c5 -5 16 -8 23 -6 8 3 3 7 -10 11 -17 4 -21 3 -13 -5z"/>
<path d="M6410 869 c0 -5 5 -7 10 -4 6 3 10 8 10 11 0 2 -4 4 -10 4 -5 0 -10
-5 -10 -11z"/>
<path d="M3518 858 c5 -5 16 -8 23 -6 8 3 3 7 -10 11 -17 4 -21 3 -13 -5z"/>
<path d="M6016 861 c-4 -7 -5 -15 -2 -18 9 -9 19 4 14 18 -4 11 -6 11 -12 0z"/>
<path d="M6078 847 c4 -14 7 -16 13 -5 12 19 11 25 -5 25 -8 0 -11 -8 -8 -20z"/>
<path d="M6233 863 c-17 -6 -16 -20 0 -26 8 -3 14 3 14 14 1 10 1 19 0 18 -1
0 -8 -3 -14 -6z"/>
<path d="M5960 850 c-13 -9 -13 -10 0 -10 8 0 22 5 30 10 13 9 13 10 0 10 -8
0 -22 -5 -30 -10z"/>
<path d="M3395 840 c-3 -5 -1 -10 4 -10 6 0 11 5 11 10 0 6 -2 10 -4 10 -3 0
-8 -4 -11 -10z"/>
<path d="M6325 839 c-4 -5 -4 -13 -1 -16 3 -4 6 0 6 8 0 11 2 11 10 -1 6 -9
10 -10 10 -3 0 17 -17 25 -25 12z"/>
<path d="M6470 840 c0 -5 7 -7 15 -4 8 4 15 8 15 10 0 2 -7 4 -15 4 -8 0 -15
-4 -15 -10z"/>
<path d="M6278 833 c7 -3 16 -2 19 1 4 3 -2 6 -13 5 -11 0 -14 -3 -6 -6z"/>
<path d="M5965 820 c3 -5 8 -10 11 -10 2 0 4 5 4 10 0 6 -5 10 -11 10 -5 0 -7
-4 -4 -10z"/>
<path d="M3501 804 c0 -11 3 -14 6 -6 3 7 2 16 -1 19 -3 4 -6 -2 -5 -13z"/>
<path d="M3725 810 c27 -12 43 -12 25 0 -8 5 -22 9 -30 9 -10 0 -8 -3 5 -9z"/>
<path d="M5870 810 c0 -5 5 -10 10 -10 6 0 10 5 10 10 0 6 -4 10 -10 10 -5 0
-10 -4 -10 -10z"/>
<path d="M5900 804 c0 -8 5 -12 10 -9 6 4 8 11 5 16 -9 14 -15 11 -15 -7z"/>
<path d="M6015 810 c3 -5 8 -10 11 -10 2 0 4 5 4 10 0 6 -5 10 -11 10 -5 0 -7
-4 -4 -10z"/>
<path d="M5590 781 c0 -6 4 -12 8 -15 5 -3 9 1 9 9 0 8 -4 15 -9 15 -4 0 -8
-4 -8 -9z"/>
<path d="M5930 780 c0 -5 5 -10 11 -10 5 0 7 5 4 10 -3 6 -8 10 -11 10 -2 0
-4 -4 -4 -10z"/>
<path d="M5890 771 c0 -5 7 -12 16 -15 14 -5 15 -4 4 9 -14 17 -20 19 -20 6z"/>
<path d="M5722 745 c0 -16 2 -22 5 -12 2 9 2 23 0 30 -3 6 -5 -1 -5 -18z"/>
<path d="M4090 741 c0 -6 5 -13 10 -16 6 -3 10 1 10 9 0 9 -4 16 -10 16 -5 0
-10 -4 -10 -9z"/>
<path d="M4121 734 c0 -11 3 -14 6 -6 3 7 2 16 -1 19 -3 4 -6 -2 -5 -13z"/>
<path d="M5820 742 c0 -5 7 -9 15 -9 8 0 12 4 9 9 -3 4 -9 8 -15 8 -5 0 -9 -4
-9 -8z"/>
<path d="M5225 730 c-3 -5 1 -10 10 -10 9 0 13 5 10 10 -3 6 -8 10 -10 10 -2
0 -7 -4 -10 -10z"/>
<path d="M4255 720 c3 -5 10 -10 16 -10 5 0 9 5 9 10 0 6 -7 10 -16 10 -8 0
-12 -4 -9 -10z"/>
<path d="M5115 720 c-3 -5 -1 -10 4 -10 6 0 11 5 11 10 0 6 -2 10 -4 10 -3 0
-8 -4 -11 -10z"/>
<path d="M5635 710 c3 -5 8 -10 11 -10 2 0 4 5 4 10 0 6 -5 10 -11 10 -5 0 -7
-4 -4 -10z"/>
<path d="M4450 706 c0 -2 7 -7 16 -10 8 -3 12 -2 9 4 -6 10 -25 14 -25 6z"/>
<path d="M4628 703 c7 -3 16 -2 19 1 4 3 -2 6 -13 5 -11 0 -14 -3 -6 -6z"/>
<path d="M4790 699 c0 -5 5 -7 10 -4 6 3 10 8 10 11 0 2 -4 4 -10 4 -5 0 -10
-5 -10 -11z"/>
<path d="M5238 703 c7 -3 16 -2 19 1 4 3 -2 6 -13 5 -11 0 -14 -3 -6 -6z"/>
<path d="M4346 672 c-3 -5 1 -9 9 -9 8 0 15 4 15 9 0 4 -4 8 -9 8 -6 0 -12 -4
-15 -8z"/>
<path d="M5171 664 c0 -11 3 -14 6 -6 3 7 2 16 -1 19 -3 4 -6 -2 -5 -13z"/>
</g>
</svg>
